<mxfile host="app.diagrams.net">
  <diagram name="LinkedIn Post Generator Architecture" id="linkedin-architecture">
    <mxGraphModel dx="1422" dy="794" grid="1" gridSize="10" guides="1" tooltips="1" connect="1" arrows="1" fold="1" page="1" pageScale="1" pageWidth="1169" pageHeight="827" math="0" shadow="0">
      <root>
        <mxCell id="0" />
        <mxCell id="1" parent="0" />

        <!-- Title -->
        <mxCell id="title" value="LinkedIn Post Generator - AI-Powered Content Creation Platform" style="text;html=1;strokeColor=none;fillColor=none;align=center;verticalAlign=middle;whiteSpace=wrap;rounded=0;fontSize=18;fontStyle=1;" vertex="1" parent="1">
          <mxGeometry x="300" y="20" width="569" height="30" as="geometry" />
        </mxCell>

        <!-- User Layer -->
        <mxCell id="user" value="User" style="shape=umlActor;verticalLabelPosition=bottom;verticalAlign=top;html=1;outlineConnect=0;fillColor=#dae8fc;strokeColor=#6c8ebf;" vertex="1" parent="1">
          <mxGeometry x="50" y="120" width="30" height="60" as="geometry" />
        </mxCell>

        <!-- Browser -->
        <mxCell id="browser" value="Web Browser&#xa;(Chrome/Safari/Firefox)" style="rounded=1;whiteSpace=wrap;html=1;fillColor=#e1d5e7;strokeColor=#9673a6;" vertex="1" parent="1">
          <mxGeometry x="150" y="130" width="120" height="40" as="geometry" />
        </mxCell>

        <!-- AWS Cloud Container -->
        <mxCell id="aws-cloud" value="" style="rounded=1;whiteSpace=wrap;html=1;fillColor=#fff2cc;strokeColor=#d6b656;dashed=1;dashPattern=5 5;" vertex="1" parent="1">
          <mxGeometry x="320" y="80" width="800" height="700" as="geometry" />
        </mxCell>

        <mxCell id="aws-label" value="AWS Cloud Infrastructure" style="text;html=1;strokeColor=none;fillColor=none;align=left;verticalAlign=top;whiteSpace=wrap;rounded=0;fontSize=14;fontStyle=1;" vertex="1" parent="1">
          <mxGeometry x="330" y="90" width="180" height="20" as="geometry" />
        </mxCell>

        <!-- API Gateway -->
        <mxCell id="api-gateway" value="API Gateway&#xa;(REST API)&#xa;&#xa;Routes:&#xa;• /dev/&#xa;• /production/" style="rounded=1;whiteSpace=wrap;html=1;fillColor=#f8cecc;strokeColor=#b85450;" vertex="1" parent="1">
          <mxGeometry x="350" y="130" width="120" height="80" as="geometry" />
        </mxCell>

        <!-- Main Lambda Function -->
        <mxCell id="main-lambda" value="Main Lambda Function&#xa;(Django Application)&#xa;&#xa;• URL routing&#xa;• Content generation&#xa;• User interface&#xa;• AJAX endpoints" style="rounded=1;whiteSpace=wrap;html=1;fillColor=#d5e8d4;strokeColor=#82b366;" vertex="1" parent="1">
          <mxGeometry x="520" y="120" width="160" height="100" as="geometry" />
        </mxCell>

        <!-- Async Lambda Function -->
        <mxCell id="async-lambda" value="Async Lambda Function&#xa;(Image Processing)&#xa;&#xa;• AI image generation&#xa;• S3 uploads&#xa;• Database updates&#xa;• Error handling" style="rounded=1;whiteSpace=wrap;html=1;fillColor=#d5e8d4;strokeColor=#82b366;" vertex="1" parent="1">
          <mxGeometry x="720" y="120" width="160" height="100" as="geometry" />
        </mxCell>

        <!-- PostgreSQL Database -->
        <mxCell id="database" value="PostgreSQL RDS&#xa;(linkedin_generator)&#xa;&#xa;Tables:&#xa;• GeneratedPost&#xa;• Auth/Sessions&#xa;• Admin data" style="rounded=1;whiteSpace=wrap;html=1;fillColor=#ffe6cc;strokeColor=#d79b00;" vertex="1" parent="1">
          <mxGeometry x="520" y="270" width="160" height="100" as="geometry" />
        </mxCell>

        <!-- S3 Storage -->
        <mxCell id="s3-storage" value="S3 Storage&#xa;(linkedin-generator-images)&#xa;&#xa;• Generated images&#xa;• Static assets&#xa;• File downloads" style="rounded=1;whiteSpace=wrap;html=1;fillColor=#e1d5e7;strokeColor=#9673a6;" vertex="1" parent="1">
          <mxGeometry x="720" y="270" width="160" height="100" as="geometry" />
        </mxCell>

        <!-- AWS Bedrock -->
        <mxCell id="bedrock" value="AWS Bedrock&#xa;(AI Models)&#xa;&#xa;• Claude 3.5 Sonnet&#xa;• Titan Image Generator&#xa;• Context analysis&#xa;• Content generation" style="rounded=1;whiteSpace=wrap;html=1;fillColor=#f0f0f0;strokeColor=#666666;" vertex="1" parent="1">
          <mxGeometry x="920" y="120" width="160" height="100" as="geometry" />
        </mxCell>

        <!-- External Services -->
        <mxCell id="external-apis" value="External Web APIs&#xa;&#xa;• Article scraping&#xa;• Content parsing&#xa;• URL validation" style="rounded=1;whiteSpace=wrap;html=1;fillColor=#f8cecc;strokeColor=#b85450;" vertex="1" parent="1">
          <mxGeometry x="920" y="270" width="160" height="80" as="geometry" />
        </mxCell>

        <!-- Django Components Box -->
        <mxCell id="django-box" value="" style="rounded=1;whiteSpace=wrap;html=1;fillColor=#e6f7ff;strokeColor=#1890ff;dashed=1;" vertex="1" parent="1">
          <mxGeometry x="340" y="420" width="520" height="320" as="geometry" />
        </mxCell>

        <mxCell id="django-label" value="Django Application Components" style="text;html=1;strokeColor=none;fillColor=none;align=left;verticalAlign=top;whiteSpace=wrap;rounded=0;fontSize=12;fontStyle=1;" vertex="1" parent="1">
          <mxGeometry x="350" y="430" width="200" height="20" as="geometry" />
        </mxCell>

        <!-- Django Views -->
        <mxCell id="views" value="Views&#xa;(generator/views.py)&#xa;&#xa;• index_view&#xa;• generate_view&#xa;• result_view&#xa;• regenerate_single_image" style="rounded=1;whiteSpace=wrap;html=1;fillColor=#cfe2f3;strokeColor=#6d9eeb;" vertex="1" parent="1">
          <mxGeometry x="360" y="460" width="140" height="80" as="geometry" />
        </mxCell>

        <!-- Django Models -->
        <mxCell id="models" value="Models&#xa;(generator/models.py)&#xa;&#xa;• GeneratedPost&#xa;• Image prompts&#xa;• Metadata tracking" style="rounded=1;whiteSpace=wrap;html=1;fillColor=#cfe2f3;strokeColor=#6d9eeb;" vertex="1" parent="1">
          <mxGeometry x="520" y="460" width="140" height="80" as="geometry" />
        </mxCell>

        <!-- Django Services -->
        <mxCell id="services" value="Services&#xa;&#xa;• ai_generator.py&#xa;• scraper.py&#xa;• storage.py" style="rounded=1;whiteSpace=wrap;html=1;fillColor=#cfe2f3;strokeColor=#6d9eeb;" vertex="1" parent="1">
          <mxGeometry x="680" y="460" width="140" height="80" as="geometry" />
        </mxCell>

        <!-- Django Templates -->
        <mxCell id="templates" value="Templates&#xa;&#xa;• base.html&#xa;• index.html&#xa;• result.html (editable prompts)" style="rounded=1;whiteSpace=wrap;html=1;fillColor=#cfe2f3;strokeColor=#6d9eeb;" vertex="1" parent="1">
          <mxGeometry x="360" y="560" width="140" height="80" as="geometry" />
        </mxCell>

        <!-- Django URLs -->
        <mxCell id="urls" value="URL Routing&#xa;&#xa;• /generate/&#xa;• /result/&lt;id&gt;/&#xa;• /api/regenerate-image/" style="rounded=1;whiteSpace=wrap;html=1;fillColor=#cfe2f3;strokeColor=#6d9eeb;" vertex="1" parent="1">
          <mxGeometry x="520" y="560" width="140" height="80" as="geometry" />
        </mxCell>

        <!-- Static Files -->
        <mxCell id="static-files" value="Static Assets&#xa;&#xa;• favicon.svg/ico&#xa;• CSS/JS libraries&#xa;• Bootstrap icons" style="rounded=1;whiteSpace=wrap;html=1;fillColor=#cfe2f3;strokeColor=#6d9eeb;" vertex="1" parent="1">
          <mxGeometry x="680" y="560" width="140" height="80" as="geometry" />
        </mxCell>

        <!-- Feature Highlights -->
        <mxCell id="features-box" value="" style="rounded=1;whiteSpace=wrap;html=1;fillColor=#f0f8ff;strokeColor=#4169e1;dashed=1;" vertex="1" parent="1">
          <mxGeometry x="900" y="420" width="200" height="320" as="geometry" />
        </mxCell>

        <mxCell id="features-label" value="Key Features" style="text;html=1;strokeColor=none;fillColor=none;align=center;verticalAlign=top;whiteSpace=wrap;rounded=0;fontSize=12;fontStyle=1;" vertex="1" parent="1">
          <mxGeometry x="950" y="430" width="100" height="20" as="geometry" />
        </mxCell>

        <mxCell id="feature1" value="✅ Context-Aware&#xa;AI Image Generation" style="text;html=1;strokeColor=none;fillColor=none;align=left;verticalAlign=middle;whiteSpace=wrap;rounded=0;fontSize=10;" vertex="1" parent="1">
          <mxGeometry x="920" y="460" width="160" height="30" as="geometry" />
        </mxCell>

        <mxCell id="feature2" value="✅ Editable Image&#xa;Prompts with Regeneration" style="text;html=1;strokeColor=none;fillColor=none;align=left;verticalAlign=middle;whiteSpace=wrap;rounded=0;fontSize=10;" vertex="1" parent="1">
          <mxGeometry x="920" y="490" width="160" height="30" as="geometry" />
        </mxCell>

        <mxCell id="feature3" value="✅ Real-time AJAX&#xa;Updates (No Refresh)" style="text;html=1;strokeColor=none;fillColor=none;align=left;verticalAlign=middle;whiteSpace=wrap;rounded=0;fontSize=10;" vertex="1" parent="1">
          <mxGeometry x="920" y="520" width="160" height="30" as="geometry" />
        </mxCell>

        <mxCell id="feature4" value="✅ Professional UI/UX&#xa;with Loading States" style="text;html=1;strokeColor=none;fillColor=none;align=left;verticalAlign=middle;whiteSpace=wrap;rounded=0;fontSize=10;" vertex="1" parent="1">
          <mxGeometry x="920" y="550" width="160" height="30" as="geometry" />
        </mxCell>

        <mxCell id="feature5" value="✅ Dual AI Models&#xa;(Nova + Titan)" style="text;html=1;strokeColor=none;fillColor=none;align=left;verticalAlign=middle;whiteSpace=wrap;rounded=0;fontSize=10;" vertex="1" parent="1">
          <mxGeometry x="920" y="580" width="160" height="30" as="geometry" />
        </mxCell>

        <mxCell id="feature6" value="✅ Auto Environment&#xa;Detection (Dev/Prod)" style="text;html=1;strokeColor=none;fillColor=none;align=left;verticalAlign=middle;whiteSpace=wrap;rounded=0;fontSize=10;" vertex="1" parent="1">
          <mxGeometry x="920" y="610" width="160" height="30" as="geometry" />
        </mxCell>

        <mxCell id="feature7" value="✅ Secure S3 Storage&#xa;& Database Persistence" style="text;html=1;strokeColor=none;fillColor=none;align=left;verticalAlign=middle;whiteSpace=wrap;rounded=0;fontSize=10;" vertex="1" parent="1">
          <mxGeometry x="920" y="640" width="160" height="30" as="geometry" />
        </mxCell>

        <!-- Arrows and Connections -->

        <!-- User to Browser -->
        <mxCell id="user-browser" value="" style="edgeStyle=orthogonalEdgeStyle;rounded=0;orthogonalLoop=1;jettySize=auto;html=1;strokeWidth=2;strokeColor=#666666;" edge="1" parent="1" source="user" target="browser">
          <mxGeometry relative="1" as="geometry" />
        </mxCell>

        <!-- Browser to API Gateway -->
        <mxCell id="browser-api" value="HTTPS Requests" style="edgeStyle=orthogonalEdgeStyle;rounded=0;orthogonalLoop=1;jettySize=auto;html=1;strokeWidth=2;strokeColor=#d6b656;labelBackgroundColor=#ffffff;" edge="1" parent="1" source="browser" target="api-gateway">
          <mxGeometry relative="1" as="geometry" />
        </mxCell>

        <!-- API Gateway to Main Lambda -->
        <mxCell id="api-main" value="Route Requests" style="edgeStyle=orthogonalEdgeStyle;rounded=0;orthogonalLoop=1;jettySize=auto;html=1;strokeWidth=2;strokeColor=#82b366;labelBackgroundColor=#ffffff;" edge="1" parent="1" source="api-gateway" target="main-lambda">
          <mxGeometry relative="1" as="geometry" />
        </mxCell>

        <!-- Main Lambda to Async Lambda -->
        <mxCell id="main-async" value="Invoke Async&#xa;Image Processing" style="edgeStyle=orthogonalEdgeStyle;rounded=0;orthogonalLoop=1;jettySize=auto;html=1;strokeWidth=2;strokeColor=#82b366;labelBackgroundColor=#ffffff;" edge="1" parent="1" source="main-lambda" target="async-lambda">
          <mxGeometry relative="1" as="geometry" />
        </mxCell>

        <!-- Main Lambda to Database -->
        <mxCell id="main-db" value="CRUD Operations" style="edgeStyle=orthogonalEdgeStyle;rounded=0;orthogonalLoop=1;jettySize=auto;html=1;strokeWidth=2;strokeColor=#d79b00;labelBackgroundColor=#ffffff;" edge="1" parent="1" source="main-lambda" target="database">
          <mxGeometry relative="1" as="geometry" />
        </mxCell>

        <!-- Async Lambda to S3 -->
        <mxCell id="async-s3" value="Upload Images" style="edgeStyle=orthogonalEdgeStyle;rounded=0;orthogonalLoop=1;jettySize=auto;html=1;strokeWidth=2;strokeColor=#9673a6;labelBackgroundColor=#ffffff;" edge="1" parent="1" source="async-lambda" target="s3-storage">
          <mxGeometry relative="1" as="geometry" />
        </mxCell>

        <!-- Async Lambda to Database -->
        <mxCell id="async-db" value="Update Records" style="edgeStyle=orthogonalEdgeStyle;rounded=0;orthogonalLoop=1;jettySize=auto;html=1;strokeWidth=2;strokeColor=#d79b00;labelBackgroundColor=#ffffff;" edge="1" parent="1" source="async-lambda" target="database">
          <mxGeometry x="-0.5" relative="1" as="geometry">
            <mxPoint x="1" as="offset" />
          </mxGeometry>
        </mxCell>

        <!-- Async Lambda to Bedrock -->
        <mxCell id="async-bedrock" value="AI Generation" style="edgeStyle=orthogonalEdgeStyle;rounded=0;orthogonalLoop=1;jettySize=auto;html=1;strokeWidth=2;strokeColor=#666666;labelBackgroundColor=#ffffff;" edge="1" parent="1" source="async-lambda" target="bedrock">
          <mxGeometry relative="1" as="geometry" />
        </mxCell>

        <!-- Main Lambda to External APIs -->
        <mxCell id="main-external" value="Content Scraping" style="edgeStyle=orthogonalEdgeStyle;rounded=0;orthogonalLoop=1;jettySize=auto;html=1;strokeWidth=2;strokeColor=#b85450;labelBackgroundColor=#ffffff;" edge="1" parent="1" source="main-lambda" target="external-apis">
          <mxGeometry relative="1" as="geometry" />
        </mxCell>

        <!-- Data Flow Legend -->
        <mxCell id="legend-box" value="" style="rounded=1;whiteSpace=wrap;html=1;fillColor=#f5f5f5;strokeColor=#666666;dashed=1;" vertex="1" parent="1">
          <mxGeometry x="50" y="250" width="220" height="150" as="geometry" />
        </mxCell>

        <mxCell id="legend-title" value="Data Flow Legend" style="text;html=1;strokeColor=none;fillColor=none;align=center;verticalAlign=top;whiteSpace=wrap;rounded=0;fontSize=12;fontStyle=1;" vertex="1" parent="1">
          <mxGeometry x="60" y="260" width="120" height="20" as="geometry" />
        </mxCell>

        <mxCell id="legend1" value="→ User Requests" style="text;html=1;strokeColor=none;fillColor=none;align=left;verticalAlign=middle;whiteSpace=wrap;rounded=0;fontSize=10;fontColor=#666666;" vertex="1" parent="1">
          <mxGeometry x="60" y="285" width="100" height="15" as="geometry" />
        </mxCell>

        <mxCell id="legend2" value="→ Lambda Invocation" style="text;html=1;strokeColor=none;fillColor=none;align=left;verticalAlign=middle;whiteSpace=wrap;rounded=0;fontSize=10;fontColor=#82b366;" vertex="1" parent="1">
          <mxGeometry x="60" y="305" width="120" height="15" as="geometry" />
        </mxCell>

        <mxCell id="legend3" value="→ Database Operations" style="text;html=1;strokeColor=none;fillColor=none;align=left;verticalAlign=middle;whiteSpace=wrap;rounded=0;fontSize=10;fontColor=#d79b00;" vertex="1" parent="1">
          <mxGeometry x="60" y="325" width="130" height="15" as="geometry" />
        </mxCell>

        <mxCell id="legend4" value="→ S3 File Operations" style="text;html=1;strokeColor=none;fillColor=none;align=left;verticalAlign=middle;whiteSpace=wrap;rounded=0;fontSize=10;fontColor=#9673a6;" vertex="1" parent="1">
          <mxGeometry x="60" y="345" width="120" height="15" as="geometry" />
        </mxCell>

        <mxCell id="legend5" value="→ AI/External APIs" style="text;html=1;strokeColor=none;fillColor=none;align=left;verticalAlign=middle;whiteSpace=wrap;rounded=0;fontSize=10;fontColor=#666666;" vertex="1" parent="1">
          <mxGeometry x="60" y="365" width="110" height="15" as="geometry" />
        </mxCell>

      </root>
    </mxGraphModel>
  </diagram>
</mxfile>